# xmcd CD database file
#
# Track frame offsets:
#	150
#	20112
#	44630
#	66230
#	86040
#	112472
#	134862
#	165505
#
# Disc length: 2900 seconds
#
# Revision: 2
# Processed by: cddbd v1.5.1PL0 Copyright (c) Steve Scherf et al.
# Submitted via: CDex 1.51
#
DISCID=7f0b5208
DTITLE=Art Pepper - Intensity
DYEAR=1963
DGENRE=Jazz
TTITLE0=I Can't Believe that You're in Love with Me
TTITLE1=I Love You
TTITLE2=Come Rain or Come Shine
TTITLE3=Long Ago (and Far Away)
TTITLE4=Gone With the Wind
TTITLE5=I Wished on the Moon
TTITLE6=Too Close for Comfort
TTITLE7=Five Points
EXTD=YEAR: 1963
EXTT0=
EXTT1=
EXTT2=
EXTT3=
EXTT4=
EXTT5=
EXTT6=
EXTT7=
PLAYORDER=
